<?xml version="1.0" encoding="UTF-8"?>
<svg width="367px" height="190px" viewBox="0 0 367 190" version="1.1" xmlns="http://www.w3.org/2000/svg" xmlns:xlink="http://www.w3.org/1999/xlink">
    <!-- Generator: Sketch 49.1 (51147) - http://www.bohemiancoding.com/sketch -->
    <title>card1</title>
    <desc>Created with Sketch.</desc>
    <defs>
        <rect id="path-1" x="4" y="2" width="359" height="182" rx="8"></rect>
        <filter x="-1.9%" y="-2.7%" width="103.9%" height="107.7%" filterUnits="objectBoundingBox" id="filter-2">
            <feOffset dx="0" dy="2" in="SourceAlpha" result="shadowOffsetOuter1"></feOffset>
            <feGaussianBlur stdDeviation="2" in="shadowOffsetOuter1" result="shadowBlurOuter1"></feGaussianBlur>
            <feColorMatrix values="0 0 0 0 0.796078431   0 0 0 0 0.796078431   0 0 0 0 0.796078431  0 0 0 0.5 0" type="matrix" in="shadowBlurOuter1"></feColorMatrix>
        </filter>
    </defs>
    <g id="Page-1" stroke="none" stroke-width="1" fill="none" fill-rule="evenodd">
        <g id="预约详情" transform="translate(-4.000000, -78.000000)">
            <g id="card1" transform="translate(4.000000, 78.000000)">
                <g id="Rectangle-59">
                    <use fill="black" fill-opacity="1" filter="url(#filter-2)" xlink:href="#path-1"></use>
                    <use fill="#FFFFFF" fill-rule="evenodd" xlink:href="#path-1"></use>
                </g>
                <text id="京溪南方医院" font-family="PingFangSC-Medium, PingFang SC" font-size="15" font-weight="400" line-spacing="15" letter-spacing="0.200000003" fill="#333333">
                    <tspan x="76" y="57">京溪南方医院</tspan>
                </text>
                <text id="正畸科" font-family="PingFangSC-Medium, PingFang SC" font-size="15" font-weight="400" line-spacing="15" letter-spacing="0.200000003" fill="#333333">
                    <tspan x="176" y="57">正畸科</tspan>
                </text>
                <g id="Group-2" transform="translate(20.000000, 18.000000)">
                    <g id="time">
                        <circle id="Oval-17" fill="#6ED643" cx="20" cy="20" r="20"></circle>
                        <g id="alarm-clock" transform="translate(4.000000, 5.371429)" fill-rule="nonzero">
                            <circle id="Oval" fill="#9EF4A4" cx="16.2285714" cy="16.2285714" r="12.5714286"></circle>
                            <path d="M26.0571429,16.2285714 C26.0571429,21.6570119 21.6568924,26.0571429 16.2289156,26.0571429 C14.9942549,26.0571429 13.8126575,25.8296308 12.7242963,25.4140271 C9.02632129,24.0027139 6.4,20.4224023 6.4,16.2285714 C6.4,10.8008818 10.8002505,6.4 16.2289782,6.4 C17.686655,6.4 19.0699931,6.717741 20.3145407,7.28727204 C23.7030214,8.83824609 26.0571429,12.2584983 26.0571429,16.2285714 Z" id="Shape" fill="#F2F2F2"></path>
                            <path d="M25.6,16.242684 C25.6,21.6633299 21.2247341,26.0571429 15.8275773,26.0571429 C14.5999269,26.0571429 13.4250386,25.8299575 12.3428571,25.4149505 L19.889942,7.31428571 C23.2592452,8.86297028 25.6,12.2783115 25.6,16.242684 Z" id="Shape" fill="#FFFFFF"></path>
                            <path d="M29.8177976,10.5142857 L26.5528866,7.25005102 C26.5498442,7.24700851 26.5474989,7.24466324 26.5452171,7.24162073 L25.6517559,6.34896049 L21.4857143,2.18281125 C23.3263863,0.342091701 26.0811827,-0.0258620518 28.2875171,1.07806259 L28.2875171,1.07882322 C28.8390849,1.3538536 29.356869,1.72263136 29.8177976,2.18274787 C32.117877,4.4836473 32.117877,8.21421029 29.8177976,10.5142857 Z" id="Shape" fill="#9EF4A4"></path>
                            <path d="M28.3428571,1.08473852 L28.3428571,1.08550729 C28.3428571,1.08550729 23.3119044,4.01817815 26.5863816,7.31428571 L25.6856512,6.41206836 L21.4857143,2.20131497 C23.3413622,0.34088808 26.1186357,-0.03106917 28.3428571,1.08473852 Z" id="Shape" fill="#6CC873"></path>
                            <path d="M2.1826656,10.5142857 C-0.118031391,8.21358872 -0.118031391,4.48336259 2.1826656,2.1826656 C4.48336259,-0.118031391 8.21358872,-0.118031391 10.5142857,2.1826656 L6.34847566,6.34847566 L2.1826656,10.5142857 Z" id="Shape" fill="#9EF4A4"></path>
                            <path d="M4.89224658,2.18172673 C5.71419085,1.37068355 6.71640522,0.846871619 7.77142857,0.607565069 C5.83323593,0.167938334 3.71599384,0.691750261 2.20605511,2.18172673 C-0.125827893,4.48268298 -0.125827893,8.21332946 2.20605511,10.5142857 L3.76854585,8.97251761 C2.65666611,6.76766433 3.03011945,4.01915728 4.89224658,2.18172673 Z" id="Shape" fill="#6CC873"></path>
                            <path d="M7.44867986,10.7104674 C7.17439332,10.5643793 6.83362433,10.6683742 6.68753626,10.9425989 C5.90132246,12.4187074 5.48571429,14.0885683 5.48571429,15.7714286 C5.48571429,21.4430502 10.0998069,26.0571429 15.7714286,26.0571429 C21.4430502,26.0571429 26.0571429,21.4430502 26.0571429,15.7714286 C26.0571429,10.0999307 21.4430502,5.48571429 15.7714286,5.48571429 C12.9069882,5.48571429 10.2475044,6.63448648 8.28280559,8.72045078 C8.06973986,8.94663968 8.08044886,9.3028222 8.30657585,9.51588794 C8.53282666,9.72889177 8.88894728,9.71836848 9.10207491,9.49211768 C10.7224763,7.77180686 12.8736851,6.7678228 15.2088038,6.62860582 L15.2088038,7.73868944 C15.2088038,8.04943609 15.4606819,8.30137611 15.7714905,8.30137611 C16.082299,8.30137611 16.3341771,8.04943609 16.3341771,7.73868944 L16.3341771,6.62897723 C20.9378703,6.90939204 24.6335889,10.6051726 24.9140656,15.2088657 L23.8043534,15.2088657 C23.4935449,15.2088657 23.2416667,15.4608057 23.2416667,15.7715524 C23.2416667,16.082299 23.4935449,16.334239 23.8043534,16.334239 L24.9140656,16.334239 C24.6336508,20.9379941 20.9379322,24.6337127 16.3341771,24.9141275 L16.3341771,23.8044153 C16.3341771,23.4936687 16.082299,23.2417286 15.7714905,23.2417286 C15.4606819,23.2417286 15.2088038,23.4936687 15.2088038,23.8044153 L15.2088038,24.9141275 C10.6051107,24.6337746 6.90939204,20.9379941 6.62891533,16.334239 L7.73856563,16.334239 C8.04937419,16.334239 8.30125231,16.082299 8.30125231,15.7715524 C8.30125231,15.4608057 8.04937419,15.2088657 7.73856563,15.2088657 L6.62848201,15.2088657 C6.70895426,13.9025536 7.06866518,12.6209403 7.68081133,11.4717348 C7.82689939,11.1972626 7.7229664,10.8564936 7.44867986,10.7104674 Z" id="Shape" fill="#000000"></path>
                            <path d="M30.1352216,1.87586298 C28.9307183,0.666416986 27.329214,0.000317991376 25.6258969,0.000317991376 C23.9225174,0.000317991376 22.3210131,0.666416986 21.1164473,1.87586298 C20.8945717,2.09864906 20.8945717,2.45987629 21.1164473,2.68259961 L24.2933934,5.87258246 C21.9584496,3.95059756 19.0592543,2.90544845 15.9999961,2.90544845 C12.9408629,2.90544845 10.0417926,3.9505348 7.70691132,5.87239419 L10.8836699,2.68259961 C10.9901701,2.57566229 11.0500453,2.43050618 11.0500453,2.27926268 C11.0500453,2.12795641 10.9902326,1.98286306 10.8836699,1.87592574 C9.38322832,0.369389801 7.24234757,-0.287923264 5.15665447,0.117547398 C4.84865365,0.177417234 4.64721561,0.476703658 4.70684077,0.786031145 C4.76646593,1.09529587 5.06440423,1.29737226 5.37259255,1.23769069 C6.89909665,0.940977293 8.46185085,1.33665792 9.65660406,2.30110199 L2.28814677,9.69967074 C0.633767327,7.63510274 0.760580168,4.59805783 2.66833529,2.68253685 C2.95289856,2.39680587 3.2685869,2.14471244 3.60658781,1.93328531 C3.87290103,1.76672918 3.95427624,1.41491545 3.7884008,1.14744664 C3.62252535,0.880040594 3.27208691,0.798394203 3.0057737,0.964887573 C2.59446009,1.2221898 2.21064656,1.52863049 1.86483313,1.87580023 C-0.621611044,4.3724477 -0.621611044,8.43487338 1.86483313,10.9315209 C1.97583343,11.0428511 2.12127132,11.0986418 2.26658421,11.0986418 C2.4119596,11.0986418 2.55739749,11.0429767 2.66833529,10.9315209 L5.85159384,7.73519959 C1.63783252,12.9008243 1.93039581,20.5577621 6.7299087,25.3770329 C7.07790963,25.7264619 7.44247311,26.0529219 7.82103663,26.3574799 L6.5064706,29.856602 C6.3957203,30.1513699 6.5439707,30.4804658 6.83747149,30.5916705 C6.90353416,30.6167104 6.97134685,30.6285714 7.03790953,30.6285714 C7.26741014,30.6285714 7.48372322,30.4878083 7.56959845,30.2593113 L8.77297669,27.0561496 C10.8985449,28.4720022 13.3909266,29.2326127 15.9999961,29.2326127 C18.6090656,29.2326127 21.1015098,28.4720022 23.2270155,27.0561496 L24.4303312,30.2593113 C24.5162065,30.4878083 24.732332,30.6285714 24.9620202,30.6285714 C25.0287078,30.6285714 25.0963955,30.6167104 25.1624582,30.5917333 C25.4560215,30.4805285 25.6042094,30.1514327 25.4934591,29.856602 L24.1788931,26.3574799 C24.5573941,26.0529219 24.9220201,25.7264619 25.269896,25.3770329 C25.8986477,24.7457011 26.4637117,24.0510478 26.949338,23.3124021 C27.1222135,23.0494518 27.0500883,22.6956299 26.7882751,22.522045 C26.5263369,22.3483974 26.1740859,22.4208185 26.0010855,22.6837689 C25.5575218,23.3584028 25.0410829,23.9930607 24.4663313,24.5702335 C22.2048878,26.8409571 19.1980672,28.0915714 15.9998086,28.0915714 C12.80155,28.0915714 9.79472943,26.8409571 7.53316086,24.5702335 C2.86464832,19.8825634 2.86464832,12.2552467 7.53316086,7.5675766 C9.79485443,5.29697855 12.801675,4.04642695 15.9999336,4.04642695 C19.1981922,4.04642695 22.2049503,5.2970413 24.4664563,7.56776487 C26.199461,9.30781827 27.3455891,11.5024808 27.7807777,13.9145323 C28.2062164,16.2721111 27.9307156,18.6751256 26.9838381,20.8637007 C26.8588378,21.1526323 26.9908381,21.4886941 27.2785889,21.6142074 C27.5665272,21.7397835 27.9010906,21.6071159 28.0260284,21.3182471 C29.0626562,18.9220103 29.3644695,16.2914401 28.8988432,13.7110753 C28.5004047,11.5025435 27.5575896,9.46094447 26.1505234,7.73739607 L29.3316569,10.9315836 C29.4382197,11.0385837 29.5827201,11.0987046 29.733408,11.0987046 C29.8841584,11.0987046 30.0285338,11.0386464 30.1351591,10.9315836 C32.6216032,8.43487338 32.6216032,4.3724477 30.1352216,1.87586298 Z M29.7118454,9.69967074 L22.3432006,2.30085096 C24.3993937,0.639745413 27.4239643,0.766953126 29.3317194,2.68253685 C31.239412,4.59812058 31.3661624,7.63510274 29.7118454,9.69967074 Z" id="Shape" fill="#000000"></path>
                            <path d="M15.9188836,16.9142857 C16.2161993,16.9142857 16.4571429,16.6502078 16.4571429,16.32449 L16.4571429,11.5612243 C16.4571429,11.2355065 16.2161993,10.9714286 15.9188836,10.9714286 C15.6215679,10.9714286 15.3806244,11.2355065 15.3806244,11.5612243 L15.3806244,15.7346942 L13.3382592,15.7346942 C13.0409435,15.7346942 12.8,15.9987722 12.8,16.32449 C12.8,16.6502078 13.0409435,16.9142857 13.3382592,16.9142857 L15.9188836,16.9142857 L15.9188836,16.9142857 Z" id="Shape" fill="#000000"></path>
                        </g>
                    </g>
                </g>
                <text id="14:00" font-family="PingFangSC-Regular, PingFang SC" font-size="15" font-weight="normal" line-spacing="15" letter-spacing="0.200000003" fill="#FF0000">
                    <tspan x="76" y="34">14:00</tspan>
                </text>
                <path d="M20,65 L347,65" id="Line" stroke="#EAEAEA" stroke-linecap="square"></path>
                <path d="M20,144 L347,144" id="Line" stroke="#EAEAEA" stroke-linecap="square" stroke-dasharray="4"></path>
                <text id="姓名" font-family="PingFangSC-Regular, PingFang SC" font-size="15" font-weight="normal" line-spacing="15" letter-spacing="0.200000003" fill="#666666">
                    <tspan x="20" y="90">姓名</tspan>
                </text>
                <text id="年龄" font-family="PingFangSC-Regular, PingFang SC" font-size="15" font-weight="normal" line-spacing="15" letter-spacing="0.200000003" fill="#666666">
                    <tspan x="20" y="113">年龄</tspan>
                </text>
                <text id="性别" font-family="PingFangSC-Regular, PingFang SC" font-size="15" font-weight="normal" line-spacing="15" letter-spacing="0.200000003" fill="#666666">
                    <tspan x="20" y="136">性别</tspan>
                </text>
                <text id="备注:" font-family="PingFangSC-Regular, PingFang SC" font-size="15" font-weight="normal" line-spacing="15" letter-spacing="0.200000003" fill="#333333">
                    <tspan x="20" y="169">备注:</tspan>
                </text>
                <text id="牙齿正畸中期，需要牙弓制备，垫高牙齿…" font-family="PingFangSC-Regular, PingFang SC" font-size="15" font-weight="normal" line-spacing="15" letter-spacing="0.200000003" fill="#333333">
                    <tspan x="59" y="169">牙齿正畸中期，需要牙弓制备，垫高牙齿…</tspan>
                </text>
                <text id="李红" font-family="PingFangSC-Regular, PingFang SC" font-size="15" font-weight="normal" line-spacing="15" letter-spacing="0.200000003" fill="#666666">
                    <tspan x="76" y="90">李红</tspan>
                </text>
                <text id="24" font-family="PingFangSC-Regular, PingFang SC" font-size="15" font-weight="normal" line-spacing="15" letter-spacing="0.200000003" fill="#666666">
                    <tspan x="76" y="113">24</tspan>
                </text>
                <text id="女" font-family="PingFangSC-Regular, PingFang SC" font-size="15" font-weight="normal" line-spacing="15" letter-spacing="0.200000003" fill="#666666">
                    <tspan x="76" y="136">女</tspan>
                </text>
            </g>
        </g>
    </g>
</svg>